<svg width="28" height="28" viewBox="0 0 28 28" fill="none" xmlns="http://www.w3.org/2000/svg">
<path d="M11.8123 28L11.8111 27.9998C8.55171 27.4842 5.56326 25.8089 3.39625 23.2824C1.20614 20.7289 0 17.4627 0 14.0852C0 10.3231 1.45629 6.78599 4.1006 4.12557C6.74492 1.46516 10.2606 0 14 0C17.7394 0 21.2551 1.46516 23.8994 4.12557C26.5437 6.78599 28 10.3231 28 14.0852C28 17.4627 26.7939 20.7289 24.6038 23.2824C22.4366 25.8091 19.4482 27.484 16.1889 27.9986L16.1877 18.157H19.4494L20.0698 14.0852H16.1877V11.4429L16.1878 11.4167C16.194 10.6052 16.4987 9.24367 18.4691 9.24367H20.234V5.77741C20.2224 5.77566 18.618 5.50216 17.1003 5.50216C13.7891 5.50216 11.8123 7.55067 11.8123 10.9819V14.0852H8.25755V18.157H11.8123V27.9988V28Z" fill="black"/>
</svg>
