<svg width="28" height="28" viewBox="0 0 28 28" fill="none" xmlns="http://www.w3.org/2000/svg">
<path d="M8.1867 28C3.67205 28 0 24.3279 0 19.8133V8.1867C0 3.67284 3.67205 0 8.1867 0H19.8133C24.3279 0 28 3.67284 28 8.1867V19.8133C28 24.3279 24.3279 28 19.8133 28H8.1867ZM2.60983 8.1867V19.8133C2.60983 22.8882 5.1118 25.3902 8.1867 25.3902H19.8133C22.8882 25.3902 25.3894 22.8882 25.3894 19.8133V8.1867C25.3894 5.1118 22.8882 2.60983 19.8133 2.60983H8.1867C5.1118 2.60983 2.60983 5.1118 2.60983 8.1867ZM6.76258 14.0004C6.76258 10.0094 10.0094 6.76258 13.9996 6.76258C17.9906 6.76258 21.2374 10.0094 21.2374 14.0004C21.2374 17.9906 17.9906 21.2374 13.9996 21.2374C10.0094 21.2374 6.76258 17.9906 6.76258 14.0004ZM9.3732 14.0004C9.3732 16.5516 11.4484 18.6268 13.9996 18.6268C16.5516 18.6268 18.6268 16.5516 18.6268 14.0004C18.6268 11.4484 16.5516 9.37242 13.9996 9.37242C11.4484 9.37242 9.3732 11.4484 9.3732 14.0004ZM19.7367 6.53279C19.7367 5.56905 20.5175 4.78821 21.4813 4.78821C22.445 4.78821 23.2259 5.56905 23.2259 6.53279C23.2259 7.49652 22.445 8.27736 21.4813 8.27736C20.5175 8.27736 19.7367 7.49652 19.7367 6.53279Z" fill="black"/>
</svg>
