<svg width="82" height="23" viewBox="0 0 82 23" fill="none" xmlns="http://www.w3.org/2000/svg">
<path d="M0.910781 10.06C0.804115 10.06 0.710781 10.04 0.630781 10C0.550781 9.97333 0.510781 9.91333 0.510781 9.82C0.510781 9.72667 0.550781 9.65333 0.630781 9.6C0.724115 9.54667 0.837448 9.5 0.970781 9.46C1.15745 9.39333 1.33745 9.32 1.51078 9.24C1.69745 9.14667 1.79078 8.96667 1.79078 8.7V4.3C1.79078 3.96667 1.75078 3.68 1.67078 3.44C1.59078 3.18667 1.39745 3.03333 1.09078 2.98C1.03745 2.96667 0.990781 2.94 0.950781 2.9C0.910781 2.86 0.890781 2.79333 0.890781 2.7C0.890781 2.54 0.950781 2.44667 1.07078 2.42C1.41745 2.32667 1.72411 2.22667 1.99078 2.12C2.25745 2.01333 2.50411 1.9 2.73078 1.78C2.95745 1.64667 3.19745 1.50667 3.45078 1.36C3.47745 1.34667 3.50411 1.33333 3.53078 1.32C3.57078 1.29333 3.61078 1.28 3.65078 1.28C3.74411 1.28 3.79078 1.33333 3.79078 1.44C3.79078 1.54667 3.77078 1.74 3.73078 2.02C3.70411 2.28667 3.69078 2.51333 3.69078 2.7C3.69078 2.83333 3.70411 2.91333 3.73078 2.94H3.77078C4.10411 2.60667 4.51745 2.3 5.01078 2.02C5.51745 1.74 6.12411 1.6 6.83078 1.6C7.28412 1.6 7.67745 1.72 8.01078 1.96C8.34411 2.18667 8.61078 2.54667 8.81078 3.04H8.87078C9.28412 2.61333 9.75745 2.26667 10.2908 2C10.8241 1.73333 11.4108 1.6 12.0508 1.6C12.4908 1.6 12.8641 1.72667 13.1708 1.98C13.4774 2.23333 13.7108 2.57333 13.8708 3C14.0441 3.42667 14.1308 3.89333 14.1308 4.4V8.72C14.1308 8.98667 14.2174 9.16 14.3908 9.24C14.5641 9.32 14.7508 9.39333 14.9508 9.46C15.0841 9.5 15.1908 9.54667 15.2708 9.6C15.3508 9.65333 15.3908 9.72667 15.3908 9.82C15.3908 9.9 15.3574 9.96 15.2908 10C15.2374 10.04 15.1441 10.06 15.0108 10.06C14.7441 10.06 14.5241 10.0467 14.3508 10.02C14.1774 10.0067 14.0108 9.99333 13.8508 9.98C13.6908 9.96667 13.4908 9.96 13.2508 9.96C13.0241 9.96 12.8241 9.96667 12.6508 9.98C12.4908 9.99333 12.3241 10.0067 12.1508 10.02C11.9774 10.0467 11.7574 10.06 11.4908 10.06C11.3841 10.06 11.2908 10.04 11.2108 10C11.1441 9.96 11.1108 9.9 11.1108 9.82C11.1108 9.71333 11.1508 9.64 11.2308 9.6C11.3108 9.54667 11.4174 9.5 11.5508 9.46C11.7508 9.40667 11.9241 9.34 12.0708 9.26C12.2174 9.16667 12.2908 9 12.2908 8.76V4.58C12.2908 4.26 12.2241 3.96667 12.0908 3.7C11.9708 3.42 11.8041 3.2 11.5908 3.04C11.3774 2.86667 11.1374 2.78 10.8708 2.78C10.5908 2.78 10.3241 2.82 10.0708 2.9C9.81745 2.98 9.57078 3.11333 9.33078 3.3C9.02411 3.54 8.87078 3.94667 8.87078 4.52V8.72C8.87078 8.98667 8.95078 9.16667 9.11078 9.26C9.28411 9.34 9.47078 9.40667 9.67078 9.46C9.79078 9.5 9.89078 9.54667 9.97078 9.6C10.0641 9.65333 10.1108 9.72667 10.1108 9.82C10.1108 9.9 10.0774 9.96 10.0108 10C9.94412 10.04 9.85078 10.06 9.73078 10.06C9.46411 10.06 9.24412 10.0467 9.07078 10.02C8.89745 10.0067 8.73078 9.99333 8.57078 9.98C8.41078 9.96667 8.21078 9.96 7.97078 9.96C7.74411 9.96 7.54411 9.96667 7.37078 9.98C7.21078 9.99333 7.04411 10.0067 6.87078 10.02C6.69745 10.0467 6.47745 10.06 6.21078 10.06C6.11745 10.06 6.03078 10.04 5.95078 10C5.87078 9.96 5.83078 9.9 5.83078 9.82C5.83078 9.71333 5.87745 9.64 5.97078 9.6C6.06411 9.54667 6.16411 9.5 6.27078 9.46C6.47078 9.40667 6.64411 9.34 6.79078 9.26C6.95078 9.16667 7.03078 9 7.03078 8.76V4.58C7.03078 4.26 6.96411 3.96667 6.83078 3.7C6.71078 3.43333 6.54411 3.21333 6.33078 3.04C6.11745 2.86667 5.87745 2.78 5.61078 2.78C5.34411 2.78 5.07745 2.82 4.81078 2.9C4.55745 2.98 4.31078 3.11333 4.07078 3.3C3.77745 3.51333 3.63078 3.91333 3.63078 4.5V8.72C3.63078 8.97333 3.70411 9.14667 3.85078 9.24C3.99745 9.32 4.17078 9.39333 4.37078 9.46C4.47745 9.5 4.57745 9.54667 4.67078 9.6C4.76411 9.64 4.81078 9.71333 4.81078 9.82C4.81078 9.9 4.77078 9.96 4.69078 10C4.62411 10.04 4.53745 10.06 4.43078 10.06C4.16411 10.06 3.94411 10.0467 3.77078 10.02C3.59745 10.0067 3.43745 9.99333 3.29078 9.98C3.14411 9.96667 2.95078 9.96 2.71078 9.96C2.48411 9.96 2.28411 9.96667 2.11078 9.98C1.93745 9.99333 1.75745 10.0067 1.57078 10.02C1.39745 10.0467 1.17745 10.06 0.910781 10.06ZM20.5125 10.28C19.7525 10.28 19.0592 10.1067 18.4325 9.76C17.8192 9.4 17.3325 8.91333 16.9725 8.3C16.6125 7.68667 16.4325 6.98667 16.4325 6.2C16.4325 5.61333 16.5458 5.04667 16.7725 4.5C16.9992 3.95333 17.3192 3.46 17.7325 3.02C18.1458 2.58 18.6258 2.23333 19.1725 1.98C19.7192 1.71333 20.3058 1.58 20.9325 1.58C21.7192 1.58 22.4325 1.77333 23.0725 2.16C23.7125 2.53333 24.2192 3.02667 24.5925 3.64C24.9658 4.25333 25.1525 4.92667 25.1525 5.66C25.1525 6.46 24.9792 7.21333 24.6325 7.92C24.2858 8.62667 23.7658 9.2 23.0725 9.64C22.3925 10.0667 21.5392 10.28 20.5125 10.28ZM20.9325 9.58C21.3192 9.58 21.6658 9.50667 21.9725 9.36C22.2792 9.2 22.5192 8.96 22.6925 8.64C22.8525 8.33333 22.9592 7.96 23.0125 7.52C23.0792 7.06667 23.1125 6.60667 23.1125 6.14C23.1125 5.47333 23.0058 4.84667 22.7925 4.26C22.5792 3.67333 22.2858 3.2 21.9125 2.84C21.5392 2.48 21.0992 2.3 20.5925 2.3C20.2858 2.3 20.0058 2.35333 19.7525 2.46C19.5125 2.55333 19.2925 2.72 19.0925 2.96C18.8392 3.26667 18.6725 3.66667 18.5925 4.16C18.5125 4.64 18.4725 5.16667 18.4725 5.74C18.4725 6.38 18.5792 6.99333 18.7925 7.58C19.0058 8.16667 19.2925 8.64667 19.6525 9.02C20.0258 9.39333 20.4525 9.58 20.9325 9.58ZM26.6934 10.06C26.5734 10.06 26.4734 10.04 26.3934 10C26.3268 9.96 26.2934 9.9 26.2934 9.82C26.2934 9.71333 26.3334 9.64 26.4134 9.6C26.5068 9.54667 26.6201 9.5 26.7534 9.46C27.0334 9.39333 27.2268 9.3 27.3334 9.18C27.4534 9.06 27.5134 8.9 27.5134 8.7V4.3C27.5134 3.96667 27.4668 3.68667 27.3734 3.46C27.2801 3.22 27.0801 3.06667 26.7734 3C26.7201 2.98667 26.6668 2.95333 26.6134 2.9C26.5734 2.84667 26.5534 2.78 26.5534 2.7C26.5534 2.55333 26.6201 2.46 26.7534 2.42C27.1268 2.31333 27.5268 2.16667 27.9534 1.98C28.3801 1.78 28.7268 1.60667 28.9934 1.46C29.0734 1.40667 29.1468 1.36667 29.2134 1.34C29.2801 1.31333 29.3268 1.3 29.3534 1.3C29.4468 1.3 29.4934 1.35333 29.4934 1.46C29.4934 1.51333 29.4868 1.62667 29.4734 1.8C29.4734 1.97333 29.4668 2.16667 29.4534 2.38C29.4401 2.59333 29.4334 2.8 29.4334 3C29.4334 3.05333 29.4468 3.08 29.4734 3.08C29.6868 2.81333 29.9201 2.56667 30.1734 2.34C30.4401 2.11333 30.7201 1.93333 31.0134 1.8C31.3068 1.65333 31.5868 1.58 31.8534 1.58C32.2001 1.58 32.4668 1.65333 32.6534 1.8C32.8401 1.93333 32.9334 2.11333 32.9334 2.34C32.9334 2.48667 32.8868 2.66 32.7934 2.86C32.7134 3.04667 32.6001 3.21333 32.4534 3.36C32.3201 3.49333 32.1734 3.56 32.0134 3.56C31.9201 3.56 31.8201 3.54 31.7134 3.5C31.6068 3.44667 31.4934 3.39333 31.3734 3.34C31.2668 3.28667 31.1534 3.24 31.0334 3.2C30.9268 3.14667 30.8201 3.12 30.7134 3.12C30.3801 3.12 30.0734 3.24 29.7934 3.48C29.5134 3.72 29.3734 4.18667 29.3734 4.88V8.64C29.3734 8.85333 29.4601 9.02 29.6334 9.14C29.8068 9.26 30.0668 9.37333 30.4134 9.48C30.5601 9.52 30.6734 9.56667 30.7534 9.62C30.8334 9.66 30.8734 9.72667 30.8734 9.82C30.8734 9.98 30.7468 10.06 30.4934 10.06C30.0934 10.06 29.7468 10.04 29.4534 10C29.1734 9.97333 28.8601 9.96 28.5134 9.96C28.2868 9.96 28.0868 9.96667 27.9134 9.98C27.7401 9.99333 27.5601 10.0067 27.3734 10.02C27.1868 10.0467 26.9601 10.06 26.6934 10.06ZM37.1814 10.3C36.4614 10.3 35.8214 10.12 35.2614 9.76C34.7147 9.38667 34.2814 8.87333 33.9614 8.22C33.6414 7.55333 33.4814 6.78667 33.4814 5.92C33.4814 5.13333 33.6614 4.41333 34.0214 3.76C34.3947 3.10667 34.8881 2.58667 35.5014 2.2C36.1147 1.8 36.7881 1.6 37.5214 1.6C38.0681 1.6 38.5547 1.71333 38.9814 1.94C39.4214 2.15333 39.7614 2.46 40.0014 2.86C40.2547 3.24667 40.3814 3.69333 40.3814 4.2C40.3814 4.64 40.1747 4.86 39.7614 4.86H35.6214C35.4347 4.86 35.3014 4.91333 35.2214 5.02C35.1414 5.12667 35.1014 5.32 35.1014 5.6C35.1014 6.18667 35.2347 6.72667 35.5014 7.22C35.7681 7.7 36.1214 8.08667 36.5614 8.38C37.0014 8.67333 37.4881 8.82 38.0214 8.82C38.4214 8.82 38.7814 8.74667 39.1014 8.6C39.4347 8.44 39.7414 8.22 40.0214 7.94C40.0614 7.88667 40.0947 7.84667 40.1214 7.82C40.1614 7.79333 40.2014 7.78 40.2414 7.78C40.3614 7.78 40.4214 7.85333 40.4214 8C40.4214 8.21333 40.3281 8.46667 40.1414 8.76C39.9547 9.04 39.7147 9.3 39.4214 9.54C39.1414 9.76667 38.8081 9.94667 38.4214 10.08C38.0481 10.2267 37.6347 10.3 37.1814 10.3ZM35.6414 4.18H37.2414C37.5881 4.18 37.8614 4.17333 38.0614 4.16C38.2614 4.14667 38.4481 4.12 38.6214 4.08C38.6881 4.05333 38.7347 4 38.7614 3.92C38.7881 3.82667 38.8014 3.71333 38.8014 3.58C38.8014 3.20667 38.6481 2.89333 38.3414 2.64C38.0347 2.37333 37.6681 2.24 37.2414 2.24C36.9481 2.24 36.6547 2.32667 36.3614 2.5C36.0814 2.67333 35.8481 2.89333 35.6614 3.16C35.4747 3.41333 35.3881 3.67333 35.4014 3.94C35.4014 4.1 35.4814 4.18 35.6414 4.18Z" fill="#530700"/>
<path d="M0 15.1948H80L69.551 5V23" stroke="#530700"/>
</svg>
