<svg width="82" height="37" viewBox="0 0 82 37" fill="none" xmlns="http://www.w3.org/2000/svg">
<path d="M3.89076 24.06C3.7841 24.06 3.69076 24.04 3.61076 24C3.53076 23.9733 3.49076 23.9133 3.49076 23.82C3.49076 23.7267 3.53076 23.6533 3.61076 23.6C3.7041 23.5467 3.81743 23.5 3.95076 23.46C4.13743 23.3933 4.31743 23.32 4.49076 23.24C4.67743 23.1467 4.77076 22.9667 4.77076 22.7V18.3C4.77076 17.9667 4.73076 17.68 4.65076 17.44C4.57076 17.1867 4.37743 17.0333 4.07076 16.98C4.01743 16.9667 3.97076 16.94 3.93076 16.9C3.89076 16.86 3.87076 16.7933 3.87076 16.7C3.87076 16.54 3.93076 16.4467 4.05076 16.42C4.39743 16.3267 4.7041 16.2267 4.97076 16.12C5.23743 16.0133 5.4841 15.9 5.71076 15.78C5.93743 15.6467 6.17743 15.5067 6.43076 15.36C6.45743 15.3467 6.4841 15.3333 6.51076 15.32C6.55076 15.2933 6.59076 15.28 6.63076 15.28C6.7241 15.28 6.77076 15.3333 6.77076 15.44C6.77076 15.5467 6.75076 15.74 6.71076 16.02C6.6841 16.2867 6.67076 16.5133 6.67076 16.7C6.67076 16.8333 6.6841 16.9133 6.71076 16.94H6.75076C7.0841 16.6067 7.49743 16.3 7.99076 16.02C8.49743 15.74 9.1041 15.6 9.81076 15.6C10.2641 15.6 10.6574 15.72 10.9908 15.96C11.3241 16.1867 11.5908 16.5467 11.7908 17.04H11.8508C12.2641 16.6133 12.7374 16.2667 13.2708 16C13.8041 15.7333 14.3908 15.6 15.0308 15.6C15.4708 15.6 15.8441 15.7267 16.1508 15.98C16.4574 16.2333 16.6908 16.5733 16.8508 17C17.0241 17.4267 17.1108 17.8933 17.1108 18.4V22.72C17.1108 22.9867 17.1974 23.16 17.3708 23.24C17.5441 23.32 17.7308 23.3933 17.9308 23.46C18.0641 23.5 18.1708 23.5467 18.2508 23.6C18.3308 23.6533 18.3708 23.7267 18.3708 23.82C18.3708 23.9 18.3374 23.96 18.2708 24C18.2174 24.04 18.1241 24.06 17.9908 24.06C17.7241 24.06 17.5041 24.0467 17.3308 24.02C17.1574 24.0067 16.9908 23.9933 16.8308 23.98C16.6708 23.9667 16.4708 23.96 16.2308 23.96C16.0041 23.96 15.8041 23.9667 15.6308 23.98C15.4708 23.9933 15.3041 24.0067 15.1308 24.02C14.9574 24.0467 14.7374 24.06 14.4708 24.06C14.3641 24.06 14.2708 24.04 14.1908 24C14.1241 23.96 14.0908 23.9 14.0908 23.82C14.0908 23.7133 14.1308 23.64 14.2108 23.6C14.2908 23.5467 14.3974 23.5 14.5308 23.46C14.7308 23.4067 14.9041 23.34 15.0508 23.26C15.1974 23.1667 15.2708 23 15.2708 22.76V18.58C15.2708 18.26 15.2041 17.9667 15.0708 17.7C14.9508 17.42 14.7841 17.2 14.5708 17.04C14.3574 16.8667 14.1174 16.78 13.8508 16.78C13.5708 16.78 13.3041 16.82 13.0508 16.9C12.7974 16.98 12.5508 17.1133 12.3108 17.3C12.0041 17.54 11.8508 17.9467 11.8508 18.52V22.72C11.8508 22.9867 11.9308 23.1667 12.0908 23.26C12.2641 23.34 12.4508 23.4067 12.6508 23.46C12.7708 23.5 12.8708 23.5467 12.9508 23.6C13.0441 23.6533 13.0908 23.7267 13.0908 23.82C13.0908 23.9 13.0574 23.96 12.9908 24C12.9241 24.04 12.8308 24.06 12.7108 24.06C12.4441 24.06 12.2241 24.0467 12.0508 24.02C11.8774 24.0067 11.7108 23.9933 11.5508 23.98C11.3908 23.9667 11.1908 23.96 10.9508 23.96C10.7241 23.96 10.5241 23.9667 10.3508 23.98C10.1908 23.9933 10.0241 24.0067 9.85076 24.02C9.67743 24.0467 9.45743 24.06 9.19076 24.06C9.09743 24.06 9.01076 24.04 8.93076 24C8.85076 23.96 8.81076 23.9 8.81076 23.82C8.81076 23.7133 8.85743 23.64 8.95076 23.6C9.0441 23.5467 9.1441 23.5 9.25076 23.46C9.45076 23.4067 9.6241 23.34 9.77076 23.26C9.93076 23.1667 10.0108 23 10.0108 22.76V18.58C10.0108 18.26 9.9441 17.9667 9.81076 17.7C9.69076 17.4333 9.5241 17.2133 9.31076 17.04C9.09743 16.8667 8.85743 16.78 8.59076 16.78C8.3241 16.78 8.05743 16.82 7.79076 16.9C7.53743 16.98 7.29076 17.1133 7.05076 17.3C6.75743 17.5133 6.61076 17.9133 6.61076 18.5V22.72C6.61076 22.9733 6.6841 23.1467 6.83076 23.24C6.97743 23.32 7.15076 23.3933 7.35076 23.46C7.45743 23.5 7.55743 23.5467 7.65076 23.6C7.7441 23.64 7.79076 23.7133 7.79076 23.82C7.79076 23.9 7.75076 23.96 7.67076 24C7.6041 24.04 7.51743 24.06 7.41076 24.06C7.1441 24.06 6.9241 24.0467 6.75076 24.02C6.57743 24.0067 6.41743 23.9933 6.27076 23.98C6.1241 23.9667 5.93076 23.96 5.69076 23.96C5.4641 23.96 5.2641 23.9667 5.09076 23.98C4.91743 23.9933 4.73743 24.0067 4.55076 24.02C4.37743 24.0467 4.15743 24.06 3.89076 24.06ZM23.4925 24.28C22.7325 24.28 22.0391 24.1067 21.4125 23.76C20.7991 23.4 20.3125 22.9133 19.9525 22.3C19.5925 21.6867 19.4125 20.9867 19.4125 20.2C19.4125 19.6133 19.5258 19.0467 19.7525 18.5C19.9791 17.9533 20.2991 17.46 20.7125 17.02C21.1258 16.58 21.6058 16.2333 22.1525 15.98C22.6991 15.7133 23.2858 15.58 23.9125 15.58C24.6991 15.58 25.4125 15.7733 26.0525 16.16C26.6925 16.5333 27.1991 17.0267 27.5725 17.64C27.9458 18.2533 28.1325 18.9267 28.1325 19.66C28.1325 20.46 27.9591 21.2133 27.6125 21.92C27.2658 22.6267 26.7458 23.2 26.0525 23.64C25.3725 24.0667 24.5191 24.28 23.4925 24.28ZM23.9125 23.58C24.2991 23.58 24.6458 23.5067 24.9525 23.36C25.2591 23.2 25.4991 22.96 25.6725 22.64C25.8325 22.3333 25.9391 21.96 25.9925 21.52C26.0591 21.0667 26.0925 20.6067 26.0925 20.14C26.0925 19.4733 25.9858 18.8467 25.7725 18.26C25.5591 17.6733 25.2658 17.2 24.8925 16.84C24.5191 16.48 24.0791 16.3 23.5725 16.3C23.2658 16.3 22.9858 16.3533 22.7325 16.46C22.4925 16.5533 22.2725 16.72 22.0725 16.96C21.8191 17.2667 21.6525 17.6667 21.5725 18.16C21.4925 18.64 21.4525 19.1667 21.4525 19.74C21.4525 20.38 21.5591 20.9933 21.7725 21.58C21.9858 22.1667 22.2725 22.6467 22.6325 23.02C23.0058 23.3933 23.4325 23.58 23.9125 23.58ZM29.6734 24.06C29.5534 24.06 29.4534 24.04 29.3734 24C29.3068 23.96 29.2734 23.9 29.2734 23.82C29.2734 23.7133 29.3134 23.64 29.3934 23.6C29.4868 23.5467 29.6001 23.5 29.7334 23.46C30.0134 23.3933 30.2068 23.3 30.3134 23.18C30.4334 23.06 30.4934 22.9 30.4934 22.7V18.3C30.4934 17.9667 30.4468 17.6867 30.3534 17.46C30.2601 17.22 30.0601 17.0667 29.7534 17C29.7001 16.9867 29.6468 16.9533 29.5934 16.9C29.5534 16.8467 29.5334 16.78 29.5334 16.7C29.5334 16.5533 29.6001 16.46 29.7334 16.42C30.1068 16.3133 30.5068 16.1667 30.9334 15.98C31.3601 15.78 31.7068 15.6067 31.9734 15.46C32.0534 15.4067 32.1268 15.3667 32.1934 15.34C32.2601 15.3133 32.3068 15.3 32.3334 15.3C32.4268 15.3 32.4734 15.3533 32.4734 15.46C32.4734 15.5133 32.4668 15.6267 32.4534 15.8C32.4534 15.9733 32.4468 16.1667 32.4334 16.38C32.4201 16.5933 32.4134 16.8 32.4134 17C32.4134 17.0533 32.4268 17.08 32.4534 17.08C32.6668 16.8133 32.9001 16.5667 33.1534 16.34C33.4201 16.1133 33.7001 15.9333 33.9934 15.8C34.2868 15.6533 34.5668 15.58 34.8334 15.58C35.1801 15.58 35.4468 15.6533 35.6334 15.8C35.8201 15.9333 35.9134 16.1133 35.9134 16.34C35.9134 16.4867 35.8668 16.66 35.7734 16.86C35.6934 17.0467 35.5801 17.2133 35.4334 17.36C35.3001 17.4933 35.1534 17.56 34.9934 17.56C34.9001 17.56 34.8001 17.54 34.6934 17.5C34.5868 17.4467 34.4734 17.3933 34.3534 17.34C34.2468 17.2867 34.1334 17.24 34.0134 17.2C33.9068 17.1467 33.8001 17.12 33.6934 17.12C33.3601 17.12 33.0534 17.24 32.7734 17.48C32.4934 17.72 32.3534 18.1867 32.3534 18.88V22.64C32.3534 22.8533 32.4401 23.02 32.6134 23.14C32.7868 23.26 33.0468 23.3733 33.3934 23.48C33.5401 23.52 33.6534 23.5667 33.7334 23.62C33.8134 23.66 33.8534 23.7267 33.8534 23.82C33.8534 23.98 33.7268 24.06 33.4734 24.06C33.0734 24.06 32.7268 24.04 32.4334 24C32.1534 23.9733 31.8401 23.96 31.4934 23.96C31.2668 23.96 31.0668 23.9667 30.8934 23.98C30.7201 23.9933 30.5401 24.0067 30.3534 24.02C30.1668 24.0467 29.9401 24.06 29.6734 24.06ZM40.1614 24.3C39.4414 24.3 38.8014 24.12 38.2414 23.76C37.6947 23.3867 37.2614 22.8733 36.9414 22.22C36.6214 21.5533 36.4614 20.7867 36.4614 19.92C36.4614 19.1333 36.6414 18.4133 37.0014 17.76C37.3747 17.1067 37.8681 16.5867 38.4814 16.2C39.0947 15.8 39.7681 15.6 40.5014 15.6C41.0481 15.6 41.5347 15.7133 41.9614 15.94C42.4014 16.1533 42.7414 16.46 42.9814 16.86C43.2347 17.2467 43.3614 17.6933 43.3614 18.2C43.3614 18.64 43.1547 18.86 42.7414 18.86H38.6014C38.4147 18.86 38.2814 18.9133 38.2014 19.02C38.1214 19.1267 38.0814 19.32 38.0814 19.6C38.0814 20.1867 38.2147 20.7267 38.4814 21.22C38.7481 21.7 39.1014 22.0867 39.5414 22.38C39.9814 22.6733 40.4681 22.82 41.0014 22.82C41.4014 22.82 41.7614 22.7467 42.0814 22.6C42.4147 22.44 42.7214 22.22 43.0014 21.94C43.0414 21.8867 43.0747 21.8467 43.1014 21.82C43.1414 21.7933 43.1814 21.78 43.2214 21.78C43.3414 21.78 43.4014 21.8533 43.4014 22C43.4014 22.2133 43.3081 22.4667 43.1214 22.76C42.9347 23.04 42.6947 23.3 42.4014 23.54C42.1214 23.7667 41.7881 23.9467 41.4014 24.08C41.0281 24.2267 40.6147 24.3 40.1614 24.3ZM38.6214 18.18H40.2214C40.5681 18.18 40.8414 18.1733 41.0414 18.16C41.2414 18.1467 41.4281 18.12 41.6014 18.08C41.6681 18.0533 41.7147 18 41.7414 17.92C41.7681 17.8267 41.7814 17.7133 41.7814 17.58C41.7814 17.2067 41.6281 16.8933 41.3214 16.64C41.0147 16.3733 40.6481 16.24 40.2214 16.24C39.9281 16.24 39.6347 16.3267 39.3414 16.5C39.0614 16.6733 38.8281 16.8933 38.6414 17.16C38.4547 17.4133 38.3681 17.6733 38.3814 17.94C38.3814 18.1 38.4614 18.18 38.6214 18.18Z" fill="#530700"/>
<path d="M0 29.1948H80L69.551 19V37" stroke="#530700"/>
</svg>
