<svg width="28" height="23" viewBox="0 0 28 23" fill="none" xmlns="http://www.w3.org/2000/svg">
<path d="M8.80578 23C19.3723 23 25.1506 14.1521 25.1506 6.47986C25.1506 6.22846 25.1456 5.97814 25.1341 5.72924C26.2557 4.90976 27.2308 3.88709 28 2.72294C26.9706 3.18502 25.8629 3.49656 24.7009 3.63694C25.8869 2.91833 26.7976 1.78088 27.227 0.425184C26.1168 1.09026 24.8879 1.57395 23.5794 1.83443C22.531 0.705918 21.0382 0 19.3862 0C16.2135 0 13.6407 2.60034 13.6407 5.80586C13.6407 6.2616 13.6912 6.70457 13.7897 7.12974C9.01545 6.88717 4.78186 4.57662 1.94881 1.06341C1.45499 1.92125 1.17085 2.91833 1.17085 3.98164C1.17085 5.99615 2.18501 7.77432 3.72714 8.81477C2.785 8.78544 1.89964 8.52372 1.12538 8.08835C1.12414 8.11256 1.12414 8.13691 1.12414 8.16238C1.12414 10.9746 3.10453 13.3223 5.73283 13.8547C5.25034 13.9874 4.74263 14.0589 4.21848 14.0589C3.84843 14.0589 3.48847 14.0219 3.13857 13.9542C3.86994 16.261 5.99054 17.9397 8.50518 17.987C6.53867 19.5443 4.0619 20.4724 1.37032 20.4724C0.906861 20.4724 0.449676 20.4456 0 20.3919C2.5424 22.0387 5.56114 23 8.80578 23Z" fill="black"/>
</svg>
