<svg width="28" height="20" viewBox="0 0 28 20" fill="none" xmlns="http://www.w3.org/2000/svg">
<path d="M14.0005 19.5999C13.9129 19.5999 5.21914 19.5932 3.06085 19.0152C1.85553 18.6933 0.906743 17.7449 0.584752 16.54C0.00668379 14.3808 0 9.84552 0 9.79995C0 9.75439 0.00668379 5.21914 0.584752 3.06085C0.90637 1.85643 1.85515 0.907645 3.06085 0.584752C5.21914 0.00668379 13.9129 0 14.0005 0C14.088 0 22.7809 0.00668379 24.9391 0.584752C26.1448 0.907645 27.0936 1.85643 27.4152 3.06085C27.9933 5.21914 28 9.75439 28 9.79995C28 9.84552 27.9933 14.3808 27.4152 16.54C27.0933 17.7449 26.1445 18.6933 24.9391 19.0152C22.7809 19.5932 14.088 19.5999 14.0005 19.5999ZM11.1998 5.60037V14.0005L18.4742 9.79995L11.1998 5.60037Z" fill="black"/>
</svg>
